# xmcd
#
# Track frame offsets:
#	150
#	14732
#	31413
#	45096
#	61790
#	75825
#	91016
#	105769
#	119458
#	132368
#	149123
#	161462
#	180089
#	199047
#	215271
#
# Disc length: 3082 seconds
#
# Revision: 0
# Processed by: cddbd v1.4PL0 Copyright (c) Steve Scherf et al.
# Submitted via: dBpowerAMP V4.0
#
DISCID=b20c080f
DTITLE=Colin Buchanan - Edge of the Kimberley
DYEAR=1900
DGENRE=Country
TTITLE0=Edge of The Kimberley
TTITLE1=Sons of the Country
TTITLE2=Adelago
TTITLE3=The House on Fishy Lake Road
TTITLE4=Rocko
TTITLE5=Tough Job
TTITLE6=That Old Caravan
TTITLE7=Fields of Green
TTITLE8=Runaway Train
TTITLE9=Tears On the Phone
TTITLE10=Jincumbilly
TTITLE11=Without You
TTITLE12=Never Ment to Be
TTITLE13=Galahs in the Gidgee
TTITLE14=Drovers Wife
EXTD=
EXTT0=
EXTT1=
EXTT2=
EXTT3=
EXTT4=
EXTT5=
EXTT6=
EXTT7=
EXTT8=
EXTT9=
EXTT10=
EXTT11=
EXTT12=
EXTT13=
EXTT14=
PLAYORDER=
